<?xml version="1.0" encoding="iso-8859-1"?>
<!-- Generator: Adobe Illustrator 19.0.0, SVG Export Plug-In . SVG Version: 6.00 Build 0)  -->
<svg version="1.1" id="Capa_1" xmlns="http://www.w3.org/2000/svg" xmlns:xlink="http://www.w3.org/1999/xlink" x="0px" y="0px"
	 viewBox="0 0 512 512" style="enable-background:new 0 0 512 512;" xml:space="preserve">
<circle style="fill:#FAC149;" cx="256" cy="264.929" r="247.071"/>
<path style="fill:#EFEFEF;" d="M62.001,417.935C107.249,475.226,177.328,512,256,512s148.751-36.774,193.999-94.066H62.001V417.935z
	"/>
<path style="fill:#DDDDDD;" d="M224.234,417.935H62.001c38.325,48.525,94.467,82.322,158.552,91.531
	C190.69,487.798,192.506,437.415,224.234,417.935z"/>
<path style="fill:#EFEFEF;" d="M293.122,17.848h-74.245c-8.262,0-14.96,6.698-14.96,14.96v14.96h14.96h16.437h49.496h8.311h14.96
	v-14.96C308.082,24.546,301.384,17.848,293.122,17.848z"/>
<path style="fill:#DDDDDD;" d="M294.204,17.903c-0.358-0.026-0.717-0.054-1.082-0.054h-74.245c-8.262,0-14.96,6.698-14.96,14.96
	v14.96h14.96h16.437h45.011V32.808C280.326,24.911,286.449,18.46,294.204,17.903z"/>
<path style="fill:#CECCCA;" d="M256,0c-4.4,0-7.968,3.566-7.968,7.968v39.801h15.935V7.968C263.967,3.566,260.4,0,256,0z"/>
<path style="fill:#9586EA;" d="M340.956,122.474H171.044c-21.129,0-38.415-17.287-38.415-38.415l0,0
	c0-21.129,17.287-38.415,38.415-38.415h169.913c21.129,0,38.415,17.287,38.415,38.415l0,0
	C379.371,105.187,362.085,122.474,340.956,122.474z"/>
<path style="fill:#806CD4;" d="M211.886,84.058L211.886,84.058c0-21.129,17.287-38.416,38.415-38.416h-79.256
	c-21.129,0-38.415,17.287-38.415,38.415l0,0c0,21.129,17.287,38.415,38.415,38.415H250.3
	C229.172,122.474,211.886,105.187,211.886,84.058z"/>
<path style="fill:#7D93AA;" d="M293.122,152.393h-74.245c-8.262,0-14.96-6.698-14.96-14.96c0-8.262,6.698-14.96,14.96-14.96h74.245
	c8.262,0,14.96,6.698,14.96,14.96C308.082,145.695,301.384,152.393,293.122,152.393z"/>
<g>
	<path style="fill:#647892;" d="M293.122,182.312h-74.245c-8.262,0-14.96-6.698-14.96-14.96s6.698-14.96,14.96-14.96h74.245
		c8.262,0,14.96,6.698,14.96,14.96C308.082,175.614,301.384,182.312,293.122,182.312z"/>
	<path style="fill:#647892;" d="M254.102,137.433c0-8.262,6.698-14.96,14.96-14.96h-50.184c-8.262,0-14.96,6.698-14.96,14.96
		c0,8.262,6.698,14.96,14.96,14.96h50.184C260.8,152.393,254.102,145.695,254.102,137.433z"/>
</g>
<path style="fill:#4D6682;" d="M254.102,167.352c0-8.262,6.698-14.96,14.96-14.96h-50.184c-8.262,0-14.96,6.698-14.96,14.96
	c0,8.262,6.698,14.96,14.96,14.96h50.184C260.8,182.312,254.102,175.614,254.102,167.352z"/>
<path style="fill:#7D93AA;" d="M293.122,333.063h-74.245c-8.262,0-14.96-6.698-14.96-14.96c0-8.262,6.698-14.96,14.96-14.96h74.245
	c8.262,0,14.96,6.698,14.96,14.96C308.082,326.366,301.384,333.063,293.122,333.063z"/>
<path style="fill:#647892;" d="M254.102,318.104c0-8.262,6.698-14.96,14.96-14.96h-50.184c-8.262,0-14.96,6.698-14.96,14.96
	c0,8.262,6.698,14.96,14.96,14.96h50.184C260.8,333.063,254.102,326.366,254.102,318.104z"/>
<g>
	<path style="fill:#EFEFEF;" d="M203.918,96.043c-4.4,0-7.968-3.566-7.968-7.968c0-3.703-3.013-6.716-6.716-6.716
		c-3.703,0-6.716,3.013-6.716,6.716c0,4.4-3.567,7.968-7.968,7.968c-4.4,0-7.968-3.566-7.968-7.968
		c0-12.489,10.16-22.65,22.65-22.65c12.489,0,22.65,10.16,22.65,22.65C211.886,92.475,208.318,96.043,203.918,96.043z"/>
	<path style="fill:#EFEFEF;" d="M337.448,96.043c-4.4,0-7.968-3.566-7.968-7.968c0-3.703-3.013-6.716-6.716-6.716
		c-3.703,0-6.716,3.013-6.716,6.716c0,4.4-3.567,7.968-7.968,7.968c-4.4,0-7.968-3.566-7.968-7.968
		c0-12.489,10.16-22.65,22.65-22.65c12.489,0,22.65,10.16,22.65,22.65C345.414,92.475,341.848,96.043,337.448,96.043z"/>
	<path style="fill:#EFEFEF;" d="M324.47,304.206H187.53c-7.167,0-12.978-5.81-12.978-12.978v-95.94
		c0-7.167,5.81-12.978,12.978-12.978h136.94c7.167,0,12.978,5.81,12.978,12.978v95.94
		C337.448,298.396,331.637,304.206,324.47,304.206z"/>
</g>
<path style="fill:#DDDDDD;" d="M196.406,291.228v-95.94c0-7.167,5.81-12.978,12.977-12.978H187.53
	c-7.167,0-12.978,5.81-12.978,12.978v95.94c0,7.167,5.81,12.978,12.978,12.978h21.852
	C202.215,304.206,196.406,298.396,196.406,291.228z"/>
<path style="fill:#EFEFEF;" d="M394.155,214.83h-41.732c-8.237,0-14.976-6.739-14.976-14.976v-36.191
	c0-8.237,6.739-14.976,14.976-14.976h41.732c8.237,0,14.976,6.739,14.976,14.976v36.191
	C409.131,208.09,402.392,214.83,394.155,214.83z"/>
<path style="fill:#DDDDDD;" d="M373.29,199.854v-36.191c0-8.237,6.739-14.976,14.976-14.976h-35.842
	c-8.237,0-14.976,6.739-14.976,14.976v36.191c0,8.237,6.74,14.976,14.976,14.976h35.842
	C380.028,214.83,373.29,208.09,373.29,199.854z"/>
<path style="fill:#647892;" d="M386.638,265.216l4.381,4.381V214.83H361.1v59.826c0,0.187,0.021,0.367,0.028,0.553
	c0.141-3.631,1.582-7.221,4.354-9.994C371.324,259.373,380.796,259.373,386.638,265.216z"/>
<path style="fill:#4D6682;" d="M376.059,214.83H361.1v59.826c0,0.187,0.021,0.367,0.028,0.553c0.141-3.631,1.582-7.221,4.354-9.994
	c2.921-2.921,6.75-4.381,10.578-4.381V214.83H376.059z"/>
<path style="fill:#647892;" d="M391.019,269.597v5.059c0,8.262-6.698,14.96-14.96,14.96c-8.076,0-14.638-6.403-14.932-14.406
	c-0.156,4.021,1.283,8.093,4.354,11.163l53.238,53.238c2.786-10.3,11.02-18.357,21.422-20.89L391.019,269.597z"/>
<path style="fill:#4D6682;" d="M385.83,285.968c-2.623,2.267-6.032,3.648-9.771,3.648c-8.076,0-14.638-6.403-14.932-14.406
	c-0.156,4.021,1.283,8.093,4.354,11.163l53.238,53.238c1.364-5.042,4.04-9.54,7.629-13.123L385.83,285.968z"/>
<path style="fill:#806CD4;" d="M187.53,182.312c-7.167,0-12.978,5.81-12.978,12.978v50.585h45.392
	c6.055,0,11.877-2.339,16.248-6.529L256,220.359v-38.045h-68.47V182.312z"/>
<path style="fill:#6858AD;" d="M187.53,182.312c-3.95,0-7.481,1.771-9.861,4.554c-0.185,0.217-0.358,0.443-0.53,0.672
	c-0.372,0.498-0.722,1.015-1.02,1.565c-0.999,1.839-1.567,3.946-1.567,6.186v50.585h21.852v-50.585
	c0-7.166,5.809-12.975,12.974-12.977H187.53z"/>
<path style="fill:#9586EA;" d="M337.448,195.287c-0.002-7.166-5.811-12.975-12.978-12.975H256v38.045l18.59,17.819
	c5.153,4.94,12.015,7.697,19.153,7.697h43.705L337.448,195.287L337.448,195.287z"/>
<g>
	<path style="fill:#DDDDDD;" d="M293.742,304.206h30.728c7.167,0,12.978-5.81,12.978-12.978v-15.893h-43.705v28.871H293.742z"/>
	<path style="fill:#DDDDDD;" d="M218.258,304.206H187.53c-7.167,0-12.978-5.81-12.978-12.978v-15.893h43.705L218.258,304.206
		L218.258,304.206z"/>
</g>
<path style="fill:#CECCCA;" d="M174.552,275.335v15.893c0,2.944,0.992,5.651,2.644,7.828c0.336,0.442,0.692,0.869,1.081,1.265
	c0.027,0.027,0.05,0.057,0.076,0.084c2.348,2.348,5.592,3.801,9.176,3.801h21.852c-7.167,0-12.977-5.81-12.977-12.978v-15.893
	L174.552,275.335L174.552,275.335z"/>
<path style="fill:#6858AD;" d="M256,220.358l-19.807,18.987c-4.371,4.19-10.193,6.529-16.248,6.529h-1.687v58.332h75.485v-58.332
	c-7.138,0-14-2.758-19.153-7.698L256,220.358z"/>
<path style="fill:#484686;" d="M238.492,257.421c0-0.665,0.539-1.203,1.203-1.203c6.366,0,12.485-2.459,17.081-6.865l14.736-14.126
	L256,220.358l-19.807,18.988c-4.371,4.19-10.193,6.529-16.248,6.529h-1.687v58.332h20.234L238.492,257.421L238.492,257.421z"/>
<circle style="fill:#7D93AA;" cx="376.057" cy="275.689" r="17.793"/>
<path style="fill:#647892;" d="M376.059,275.687c-3.291-5.701-3.055-12.457,0.008-17.779c-3.027-0.004-6.095,0.748-8.905,2.37
	c-8.51,4.914-11.426,15.796-6.513,24.307c4.913,8.51,15.796,11.426,24.307,6.512c2.81-1.623,4.995-3.903,6.505-6.526
	C385.32,284.561,379.35,281.388,376.059,275.687z"/>
<path style="fill:#7D93AA;" d="M447.13,384.715c-20.624,0-37.403-16.779-37.403-37.403s16.779-37.403,37.403-37.403
	s37.403,16.779,37.403,37.403c0,5.045-0.989,9.942-2.94,14.556c-1.714,4.052-6.389,5.947-10.441,4.236
	c-4.053-1.714-5.95-6.388-4.236-10.441c1.116-2.64,1.683-5.448,1.683-8.35c0-11.838-9.63-21.468-21.468-21.468
	s-21.468,9.63-21.468,21.468s9.63,21.468,21.468,21.468c2.901,0,5.71-0.567,8.348-1.682c4.053-1.714,8.727,0.18,10.441,4.234
	c1.714,4.053-0.182,8.728-4.235,10.441C457.071,383.726,452.175,384.715,447.13,384.715z"/>
<path style="fill:#EFEFEF;" d="M117.845,214.83h41.732c8.237,0,14.976-6.739,14.976-14.976v-36.191
	c0-8.237-6.739-14.976-14.976-14.976h-41.732c-8.237,0-14.976,6.739-14.976,14.976v36.191
	C102.869,208.09,109.608,214.83,117.845,214.83z"/>
<path style="fill:#DDDDDD;" d="M138.711,199.854v-36.191c0-8.237,6.74-14.976,14.976-14.976h-35.842
	c-8.237,0-14.976,6.739-14.976,14.976v36.191c0,8.237,6.739,14.976,14.976,14.976h35.842
	C145.45,214.83,138.711,208.09,138.711,199.854z"/>
<path style="fill:#647892;" d="M125.362,265.216l-4.381,4.381V214.83H150.9v59.826c0,0.187-0.021,0.367-0.028,0.553
	c-0.141-3.631-1.582-7.221-4.354-9.994C140.676,259.373,131.205,259.373,125.362,265.216z"/>
<path style="fill:#4D6682;" d="M135.941,214.83h-14.96v54.767l4.381-4.381c2.921-2.921,6.75-4.381,10.578-4.381V214.83z"/>
<path style="fill:#647892;" d="M120.981,269.597v5.059c0,8.262,6.698,14.96,14.96,14.96c8.076,0,14.638-6.403,14.932-14.406
	c0.156,4.021-1.283,8.093-4.354,11.163L93.281,339.61c-2.787-10.3-11.02-18.357-21.422-20.89L120.981,269.597z"/>
<path style="fill:#4D6682;" d="M85.657,326.493l40.52-40.52c-3.176-2.743-5.195-6.791-5.195-11.317v-5.059l-49.122,49.122
	C77.171,320.013,81.912,322.754,85.657,326.493z"/>
<g>
	<path style="fill:#7D93AA;" d="M64.87,384.715c20.624,0,37.403-16.779,37.403-37.403S85.493,309.91,64.87,309.91
		s-37.403,16.779-37.403,37.403c0,5.045,0.989,9.942,2.94,14.556c1.714,4.052,6.389,5.947,10.441,4.236
		c4.053-1.714,5.95-6.388,4.236-10.441c-1.116-2.64-1.683-5.448-1.683-8.35c0-11.838,9.63-21.468,21.468-21.468
		s21.468,9.63,21.468,21.468s-9.63,21.468-21.468,21.468c-2.901,0-5.71-0.567-8.348-1.682c-4.053-1.714-8.727,0.18-10.441,4.234
		c-1.714,4.053,0.182,8.728,4.235,10.441C54.929,383.726,59.826,384.715,64.87,384.715z"/>
	<path style="fill:#7D93AA;" d="M162.621,396.72l0.143,27.023c0.046,8.668,7.176,15.723,15.844,15.677l35.755-0.189
		c8.668-0.046,15.723-7.176,15.677-15.844l-0.143-27.023L162.621,396.72z"/>
</g>
<path style="fill:#647892;" d="M162.873,425.464c0.907-7.862,7.648-14.001,15.735-13.958l35.755,0.189
	c7.964,0.042,14.549,6.068,15.534,13.767c0.087-0.682,0.147-1.371,0.143-2.076l-0.143-27.023l-67.277,0.356l0.143,27.023
	C162.768,424.326,162.808,424.899,162.873,425.464z"/>
<path style="fill:#7D93AA;" d="M281.958,396.72l0.143,27.023c0.046,8.668,7.176,15.723,15.844,15.677l35.755-0.189
	c8.668-0.046,15.723-7.176,15.677-15.844l-0.143-27.023L281.958,396.72z"/>
<g>
	<path style="fill:#647892;" d="M282.211,425.464c0.907-7.862,7.648-14.001,15.735-13.958l35.755,0.189
		c7.964,0.042,14.549,6.068,15.534,13.767c0.087-0.682,0.147-1.371,0.143-2.076l-0.143-27.023l-67.277,0.356l0.143,27.023
		C282.105,424.326,282.146,424.899,282.211,425.464z"/>
	<polygon style="fill:#647892;" points="323.636,396.499 307.701,396.584 307.701,439.37 323.636,439.286 	"/>
</g>
<polygon style="fill:#4D6682;" points="307.701,411.558 323.636,411.643 323.636,396.499 307.701,396.584 "/>
<polygon style="fill:#647892;" points="204.299,396.499 188.364,396.584 188.364,439.37 204.299,439.286 "/>
<polygon style="fill:#4D6682;" points="188.364,411.558 204.299,411.643 204.299,396.499 188.364,396.584 "/>
<path style="fill:#EFEFEF;" d="M347.501,332.001H164.5c-9.578,0-17.342,7.765-17.342,17.342v31.803
	c0,9.578,7.765,17.342,17.342,17.342h183.002c9.578,0,17.342-7.765,17.342-17.342v-31.803
	C364.843,339.765,357.079,332.001,347.501,332.001z"/>
<path style="fill:#DDDDDD;" d="M196.331,381.146v-31.803c0-9.578,7.765-17.342,17.342-17.342h-49.174
	c-9.578,0-17.342,7.764-17.342,17.342v31.803c0,9.577,7.765,17.342,17.342,17.342h49.174
	C204.095,398.488,196.331,390.724,196.331,381.146z"/>
<circle style="fill:#7D93AA;" cx="135.943" cy="275.689" r="17.793"/>
<path style="fill:#647892;" d="M135.941,275.687c-3.291-5.701-3.055-12.457,0.008-17.779c-3.027-0.004-6.095,0.748-8.905,2.37
	c-8.51,4.914-11.426,15.796-6.513,24.307c4.913,8.51,15.796,11.426,24.307,6.512c2.81-1.623,4.995-3.903,6.505-6.526
	C145.202,284.561,139.232,281.388,135.941,275.687z"/>
<g>
</g>
<g>
</g>
<g>
</g>
<g>
</g>
<g>
</g>
<g>
</g>
<g>
</g>
<g>
</g>
<g>
</g>
<g>
</g>
<g>
</g>
<g>
</g>
<g>
</g>
<g>
</g>
<g>
</g>
</svg>
